<?xml version="1.0" encoding="UTF-8"?>
<svg width="94px" height="18px" viewBox="0 0 94 18" version="1.1" xmlns="http://www.w3.org/2000/svg" xmlns:xlink="http://www.w3.org/1999/xlink">
    <!-- Generator: Sketch 61.2 (89653) - https://sketch.com -->
    <title>client-5</title>
    <desc>Created with Sketch.</desc>
    <g id="Personal-1-mixed" stroke="none" stroke-width="1" fill="none" fill-rule="evenodd" opacity="0.300000012">
        <g transform="translate(-409.000000, -5049.000000)" fill="#282642" fill-rule="nonzero" id="clients">
            <g transform="translate(350.000000, 4446.000000)">
                <g id="Group-5" transform="translate(59.000000, 487.000000)">
                    <g id="client-5" transform="translate(0.000000, 116.000000)">
                        <path d="M11.9335632,2.12316829 C11.4652072,1.86289811 10.122641,2.0238263 8.51016488,2.52356601 C5.68809888,4.45487906 3.30633873,7.30019663 3.14013288,11.869287 C3.10987131,11.978534 2.83152306,11.8544294 2.77647028,11.8206356 C2.01440247,10.3582401 1.71248511,8.8183519 2.34879282,6.59693695 C2.4673949,6.39924349 2.07963943,6.1558702 2.00992143,6.22538045 C1.87025264,6.36544974 1.2880084,6.9864391 0.901300448,7.65800257 C-1.01553724,10.9871535 0.23799011,15.2528575 3.59161222,17.1196711 C6.94453599,18.9893979 11.178537,17.7833105 13.0454431,14.4253766 C15.2052463,10.5496992 13.1997771,2.8312057 11.9336214,2.12328482 L11.9335632,2.12316829 Z" id="Path"></path>
                        <path d="M23.7454746,4 C19.8369899,4 17,6.95537451 17,11.0273506 C17,15.1327292 19.8296093,18 23.8816428,18 C25.9283423,18 27.5487437,17.3490564 28.8374212,16.0090531 C29.2222966,15.5863413 29.2637191,15.1789924 29.2637191,15.0232688 C29.2637191,14.3594646 28.7783768,13.8772799 28.1096651,13.8772799 C27.7726202,13.8772799 27.490672,14.0067587 27.1673011,14.3108737 C26.4375998,15.0024358 25.4766415,15.7088952 23.8816428,15.7088952 C21.6637033,15.7088952 19.8599325,14.0151966 19.7463064,11.8401862 L28.5737812,11.8401862 C29.5337098,11.8401862 30,11.3837227 30,10.4450744 C30,10.1687173 30,9.96929088 29.9453611,9.57585003 C29.4698023,6.08463713 27.1523684,4.00046554 23.7457035,4.00046554 L23.7454746,4 Z M23.7454746,6.17995677 C25.8648352,6.17995677 27.2248007,7.55371186 27.3086758,9.77091196 L19.7490527,9.77091196 C19.9475264,7.71892094 21.6532904,6.17995677 23.7453602,6.17995677 L23.7454746,6.17995677 Z" id="Shape"></path>
                        <path d="M38.9683154,4 C37.1415285,4 35.3328134,5.04883179 34.6261865,6.50552302 L34.6261865,5.60528161 C34.6261865,4.21065978 33.5437006,4.14000882 33.3268973,4.14000882 C32.685494,4.14000882 32,4.52488612 32,5.60528161 L32,16.4785944 C32,17.9268216 33.1522421,18 33.3831143,18 C33.6139865,18 34.7667584,17.9268216 34.7667584,16.4785944 L34.7667584,10.6497135 C34.7667584,8.11356719 36.2060897,6.3421794 38.266751,6.3421794 C40.2626599,6.3421794 41.2332416,7.65004513 41.2332416,10.3410122 L41.2332416,16.4785944 C41.2332416,17.9268216 42.3860135,18 42.6168857,18 C42.8477579,18 44,17.9268216 44,16.4785944 L44,9.47345131 C44,6.82756681 42.6781063,4.00082289 38.9683154,4.00082289 L38.9683154,4 Z" id="Path"></path>
                        <path d="M56.6518827,4 C56.0158037,4 55.5544839,4.37612702 55.2798121,5.11615026 L51.5138214,14.7167406 L47.7765864,5.11615026 C47.4839936,4.3650243 47.0261292,4 46.3765216,4 C45.6176309,4 45,4.60031892 45,5.33838285 C45,5.52107312 45.0204393,5.75797081 45.172768,6.12798243 L49.5006938,16.4879516 C50.0164794,17.7377501 50.8647409,18 51.4858272,18 C52.1065035,18 52.9552921,17.7377501 53.4720733,16.4885453 L57.8281691,6.07098449 C57.9769838,5.70554458 58,5.43723865 58,5.31024012 C58,4.56362649 57.4197924,4.00017812 56.6518827,4.00017812 L56.6518827,4 Z" id="Path"></path>
                        <path d="M64.3399135,4.00069969 C62.5578872,4.00069969 60.8981564,4.48884872 59.6670816,5.37418734 C59.2495702,5.6575027 59.0464165,6.01096178 59.0464165,6.45538031 C59.0464165,7.06731582 59.5214891,7.54701029 60.128994,7.54701029 C60.3917837,7.54701029 60.6859328,7.44409784 60.9557769,7.25815574 C62.0141087,6.56424011 63.0087142,6.24063438 64.0851858,6.24063438 C66.1451775,6.24063438 67.327761,7.27109997 67.327761,9.06813212 L67.327761,9.3659077 C62.7034205,9.37086382 58,9.92017725 58,13.8770881 C58,16.7249351 60.4743613,18 62.9264924,18 C64.8793645,18 66.4390302,17.2389143 67.4396823,15.7977902 L67.4396823,16.4907729 C67.4396823,17.5227544 68.1442291,17.8886913 68.7487107,17.8886913 C68.8759855,17.8886913 70,17.8493921 70,16.4907729 L70,9.23442465 C70,5.95656103 67.8835141,4 64.3396763,4 L64.3399135,4.00069969 Z M66.741597,11.3835748 L67.3278203,11.3835748 L67.3278203,12.0148684 C67.3278203,14.3238973 65.8328887,15.8156905 63.5202442,15.8156905 C62.8925247,15.8156905 60.8436778,15.6720212 60.8436778,13.8213463 C60.8436778,11.6361039 64.209556,11.3835748 66.741597,11.3835748 L66.741597,11.3835748 Z" id="Shape"></path>
                        <path d="M77.6302432,6.43922007 C78.934061,6.43922007 79,5.48115034 79,5.28920111 C79,4.71952023 78.6399982,4.11056339 77.6302432,4.11056339 L74.9491871,4.11056339 L74.9491871,1.54972359 C74.9491871,0.405811563 74.1632444,0 73.4897151,0 C73.2410489,0 72,0.0745404834 72,1.54972359 L72,13.7103 C72,16.5166743 73.465939,18 76.2400072,18 C76.9577918,18 77.6573162,17.8800168 78.1145147,17.6789071 C78.6389203,17.4318758 78.9394502,17.0255852 78.9394502,16.5646317 C78.9394502,15.9143633 78.439962,15.4427525 77.7513428,15.4427525 C77.6183234,15.4427525 77.4291925,15.4738859 77.2205335,15.5305247 C76.9654001,15.5908157 76.7924369,15.6142256 76.6032426,15.6142256 C75.4746071,15.6142256 74.9491871,14.9185144 74.9491871,13.4244716 L74.9491871,6.43802263 L77.6302432,6.43802263 L77.6302432,6.43922007 Z" id="Path"></path>
                        <path d="M86.9862167,4 C82.9374461,4 80,6.93219494 80,10.9717174 C80,12.9384633 80.7118354,14.7309745 82.0034824,16.01888 C83.28539,17.2964268 85.0548404,18 86.9864445,18 C90.9846951,18 94,14.9785345 94,10.9718338 C94,6.93225313 91.0496249,4 86.9864445,4 L86.9862167,4 Z M86.9862167,15.6808274 C84.2097281,15.6808274 82.757807,13.3117237 82.757807,10.9714264 C82.757807,7.75547445 84.9496998,6.29089005 86.9862167,6.29089005 C89.0227336,6.29089005 91.2146263,7.75547445 91.2146263,10.9714264 C91.2146263,14.207281 89.0227336,15.6808274 86.9862167,15.6808274 Z" id="Shape"></path>
                    </g>
                </g>
            </g>
        </g>
    </g>
</svg>